<svg width="201" height="201" viewBox="0 0 201 201" fill="none" xmlns="http://www.w3.org/2000/svg">
<rect width="201" height="201" rx="100.5" fill="#2A9DD7"/>
<path d="M117.019 97.9452L112.328 97.9461L112.326 108.736L85.8267 82.2366L82.5422 85.521L109.041 112.02L98.2518 112.022L98.2509 116.713L117.015 116.709L117.019 97.9452Z" fill="white"/>
<circle cx="16.0799" cy="100.5" r="4.02" fill="white"/>
<circle cx="184.92" cy="100.5" r="4.02" fill="white"/>
<path d="M23.9329 87.7714L24.7526 83.0691L26.1228 83.3079L25.0506 89.4583L14.1512 87.5583L14.4037 86.1102L23.9329 87.7714Z" fill="white"/>
<path d="M26.3449 77.4802L27.9308 72.5944L29.2538 73.0239L27.214 79.3077L16.6908 75.8918L18.7061 69.6831L20.029 70.1126L18.4675 74.9232L21.6996 75.9723L23.1392 71.5376L24.4471 71.9621L23.0075 76.3969L26.3449 77.4802Z" fill="white"/>
<path d="M24.2857 57.604L25.532 58.2215L24.0794 61.1531L32.7467 65.4476L32.1012 66.7505L23.4338 62.456L21.9883 65.3735L20.742 64.756L24.2857 57.604Z" fill="white"/>
<path d="M28.2364 51.3759L30.8806 54.3449L30.2292 55.3352L27.3679 52.6964L28.2364 51.3759Z" fill="white"/>
<path d="M43.1563 50.4642C42.4844 51.2483 41.7244 51.7627 40.8764 52.0074C40.0353 52.2441 39.1987 52.2002 38.3666 51.8757L38.6373 50.4425C39.9345 50.9852 41.0837 50.6724 42.0847 49.5043C42.5783 48.9282 42.8394 48.3887 42.8679 47.8858C42.8884 47.3761 42.7026 46.9533 42.3106 46.6173C41.9105 46.2745 41.4802 46.1694 41.0196 46.302C40.5591 46.4347 39.9117 46.7611 39.0774 47.2812C38.6637 47.5373 38.346 47.7299 38.1243 47.8591C37.8946 47.9814 37.5918 48.1243 37.2158 48.2878C36.8387 48.4364 36.5198 48.517 36.2592 48.5296C35.9907 48.5354 35.6884 48.4914 35.3523 48.3977C35.0232 48.2961 34.7066 48.115 34.4025 47.8544C33.6744 47.2305 33.3177 46.4808 33.3325 45.6054C33.3392 44.7231 33.6579 43.9139 34.2887 43.1777C34.8578 42.5136 35.5195 42.0815 36.2737 41.8814C37.0349 41.6733 37.7978 41.6818 38.5624 41.9068L38.3003 43.3058C37.1276 42.9253 36.1505 43.1912 35.3689 44.1033C34.9781 44.5594 34.7747 45.0234 34.7588 45.4955C34.7428 45.9675 34.9269 46.368 35.311 46.6971C35.679 47.0125 36.0722 47.1205 36.4905 47.021C36.9087 46.9215 37.4996 46.6368 38.263 46.167C38.5338 45.9967 38.7264 45.8772 38.8406 45.8086C38.9549 45.74 39.1378 45.64 39.3892 45.5085C39.6475 45.3691 39.8417 45.2719 39.972 45.217C40.1023 45.1621 40.28 45.0924 40.5052 45.0078C40.7371 44.9152 40.9274 44.8632 41.076 44.8517C41.2246 44.8403 41.4034 44.834 41.6126 44.8328C41.8206 44.8168 42.0052 44.8362 42.1663 44.891C42.3275 44.9458 42.5018 45.0258 42.6892 45.1309C42.8755 45.2212 43.0567 45.3417 43.2327 45.4926C43.9688 46.1234 44.3272 46.8953 44.3079 47.8085C44.2806 48.7148 43.8967 49.6 43.1563 50.4642Z" fill="white"/>
<path d="M56.2918 38.183L47.6099 30.6249L48.9098 29.7827L55.9823 36.0483L53.2873 26.9468L54.5341 26.1389L61.7392 32.3185L58.9116 23.303L60.2115 22.4608L63.5609 33.4735L62.1283 34.4017L55.1224 28.4132L57.7244 37.2548L56.2918 38.183Z" fill="white"/>
<path d="M77.0879 26.1342C76.4536 27.5727 75.3885 28.5781 73.8926 29.1504C72.3968 29.7226 70.9326 29.6848 69.5002 29.037C68.0678 28.3891 67.0673 27.3221 66.4988 25.8361C65.9265 24.3402 65.9594 22.878 66.5974 21.4493C67.2317 20.0108 68.2968 19.0054 69.7926 18.4331C71.2885 17.8609 72.7527 17.8987 74.1851 18.5465C75.6236 19.1808 76.629 20.2459 77.2013 21.7417C77.7698 23.2278 77.732 24.6919 77.0879 26.1342ZM70.0892 27.7455C71.1505 28.2195 72.247 28.24 73.3787 27.807C74.5105 27.374 75.3084 26.6288 75.7725 25.5713C76.2427 24.5001 76.2614 23.3987 75.8284 22.267C75.3917 21.1254 74.6426 20.3176 73.5814 19.8436C72.5261 19.3561 71.4327 19.3288 70.3009 19.7617C69.1692 20.1947 68.3682 20.9467 67.898 22.0179C67.4339 23.0754 67.4202 24.1749 67.8569 25.3165C68.2899 26.4483 69.034 27.258 70.0892 27.7455Z" fill="white"/>
<path d="M89.5702 24.8611L86.3514 21.1544L83.7881 21.6344L84.5678 25.7979L83.123 26.0685L81.0865 15.1937L85.4364 14.3791C86.3685 14.2046 87.228 14.3866 88.015 14.9253C88.8 15.4537 89.2798 16.1839 89.4544 17.1161C89.5863 17.8203 89.4942 18.5022 89.1782 19.1617C88.8725 19.8193 88.4106 20.3292 87.7924 20.6916L91.1703 24.5614L89.5702 24.8611ZM82.7844 16.2747L83.5437 20.3295L86.4488 19.7854C86.9874 19.6846 87.4062 19.4024 87.7054 18.939C88.0129 18.4634 88.1144 17.9459 88.0096 17.3866C87.9049 16.8273 87.6241 16.3868 87.1671 16.065C86.7206 15.7413 86.228 15.6298 85.6895 15.7307L82.7844 16.2747Z" fill="white"/>
<path d="M103.658 24.0413L101.856 24.0852L96.9553 18.8924L97.0846 24.2014L95.6152 24.2372L95.3457 13.1768L96.8151 13.141L96.9368 18.134L101.429 13.0285L103.23 12.9847L98.4787 18.4758L103.658 24.0413Z" fill="white"/>
<path d="M124.21 16.2471L123.901 17.6032L120.711 16.8761L118.561 26.3071L117.144 25.9839L119.293 16.5529L116.119 15.8294L116.428 14.4733L124.21 16.2471Z" fill="white"/>
<path d="M134.636 30.4282C133.185 31.0339 131.721 31.0289 130.242 30.4132C128.764 29.7974 127.728 28.7613 127.136 27.3049C126.544 25.8485 126.554 24.3859 127.166 22.9171C127.782 21.4386 128.813 20.4013 130.26 19.8053C131.71 19.1996 133.175 19.2046 134.654 19.8204C136.132 20.4361 137.167 21.4722 137.759 22.9286C138.365 24.3794 138.36 25.844 137.744 27.3225C137.133 28.7913 136.096 29.8265 134.636 30.4282ZM128.453 26.7746C128.896 27.8493 129.676 28.6196 130.795 29.0854C131.914 29.5513 133.005 29.5608 134.07 29.114C135.149 28.6616 135.921 27.876 136.387 26.7574C136.857 25.6291 136.871 24.5275 136.428 23.4529C135.999 22.3725 135.225 21.5994 134.107 21.1335C132.988 20.6677 131.889 20.661 130.811 21.1134C129.746 21.5602 128.978 22.3478 128.508 23.4761C128.043 24.5947 128.024 25.6942 128.453 26.7746Z" fill="white"/>
<path d="M150.977 35.8441L150.608 36.3959C149.806 37.5958 148.726 38.3189 147.37 38.5653C146.02 38.803 144.666 38.4678 143.308 37.5598C141.907 36.6226 141.054 35.3866 140.749 33.8519C140.459 32.3142 140.759 30.8798 141.65 29.5485C142.54 28.2172 143.748 27.3963 145.274 27.0859C146.815 26.7725 148.277 27.0786 149.661 28.0042C150.51 28.5724 151.152 29.2996 151.586 30.1857C152.026 31.0631 152.216 31.9635 152.157 32.8869L150.693 32.8014C150.764 32.1264 150.632 31.4614 150.297 30.8063C149.976 30.1482 149.496 29.6054 148.857 29.1778C147.806 28.4749 146.712 28.2438 145.575 28.4847C144.443 28.7168 143.538 29.3409 142.858 30.3569C142.179 31.3728 141.948 32.448 142.165 33.5822C142.392 34.7223 143.043 35.6526 144.121 36.3731C145.04 36.9881 145.934 37.2627 146.802 37.1968C147.676 37.1221 148.415 36.7667 149.018 36.1305L145.641 33.8723L146.379 32.7687L150.977 35.8441Z" fill="white"/>
<path d="M153.083 43.2927L156.806 46.8315L155.848 47.8397L151.06 43.2882L158.682 35.2688L163.413 39.7658L162.455 40.774L158.789 37.2896L156.448 39.7527L159.827 42.9649L158.88 43.9616L155.5 40.7494L153.083 43.2927Z" fill="white"/>
<path d="M171.902 50.0111L170.808 50.869L168.79 48.2937L161.176 54.2597L160.279 53.1152L167.893 47.1491L165.885 44.5863L166.979 43.7284L171.902 50.0111Z" fill="white"/>
<path d="M178.367 60.8806L179.069 62.154L169.381 67.4958L168.679 66.2224L173.039 63.8186L170.444 59.1126L166.084 61.5164L165.374 60.2292L175.063 54.8874L175.773 56.1746L171.662 58.4411L174.257 63.147L178.367 60.8806Z" fill="white"/>
<path d="M173.145 73.129L174.873 77.9663L173.564 78.4343L171.341 72.2127L181.76 68.4907L183.956 74.6379L182.646 75.1058L180.945 70.3428L177.745 71.486L179.313 75.8768L178.018 76.3394L176.45 71.9486L173.145 73.129Z" fill="white"/>
<path d="M175.925 89.2487L179.625 86.0223L179.139 83.46L174.978 84.2483L174.704 82.8041L185.574 80.745L186.398 85.0932C186.575 86.0249 186.394 86.8848 185.857 87.6729C185.331 88.4591 184.601 88.9404 183.67 89.1169C182.966 89.2502 182.283 89.1596 181.623 88.8449C180.965 88.5406 180.454 88.0798 180.091 87.4623L176.228 90.8483L175.925 89.2487ZM184.497 82.4451L180.444 83.2129L180.994 86.1169C181.096 86.6552 181.379 87.0735 181.843 87.3716C182.319 87.6782 182.837 87.7786 183.396 87.6727C183.955 87.5668 184.395 87.285 184.716 86.8274C185.039 86.3802 185.149 85.8874 185.047 85.3491L184.497 82.4451Z" fill="white"/>
<path d="M177.067 112.929L176.248 117.632L174.877 117.393L175.949 111.242L186.849 113.143L186.596 114.591L177.067 112.929Z" fill="white"/>
<path d="M174.655 123.221L173.069 128.107L171.746 127.677L173.786 121.393L184.309 124.809L182.294 131.018L180.971 130.588L182.533 125.778L179.3 124.729L177.861 129.163L176.553 128.739L177.992 124.304L174.655 123.221Z" fill="white"/>
<path d="M176.714 143.097L175.468 142.479L176.921 139.548L168.253 135.253L168.899 133.95L177.566 138.245L179.012 135.327L180.258 135.945L176.714 143.097Z" fill="white"/>
<path d="M172.764 149.325L170.119 146.356L170.771 145.366L173.632 148.005L172.764 149.325Z" fill="white"/>
<path d="M157.844 150.237C158.516 149.453 159.276 148.938 160.124 148.694C160.965 148.457 161.801 148.501 162.634 148.825L162.363 150.258C161.066 149.716 159.916 150.028 158.915 151.197C158.422 151.773 158.161 152.312 158.132 152.815C158.112 153.325 158.297 153.748 158.69 154.084C159.09 154.426 159.52 154.532 159.98 154.399C160.441 154.266 161.088 153.94 161.923 153.42C162.336 153.164 162.654 152.971 162.876 152.842C163.105 152.72 163.408 152.577 163.784 152.413C164.161 152.265 164.48 152.184 164.741 152.171C165.009 152.166 165.312 152.21 165.648 152.303C165.977 152.405 166.294 152.586 166.598 152.846C167.326 153.47 167.682 154.22 167.668 155.096C167.661 155.978 167.342 156.787 166.711 157.523C166.142 158.187 165.481 158.619 164.726 158.819C163.965 159.028 163.202 159.019 162.438 158.794L162.7 157.395C163.872 157.776 164.85 157.51 165.631 156.598C166.022 156.142 166.225 155.677 166.241 155.205C166.257 154.733 166.073 154.333 165.689 154.004C165.321 153.688 164.928 153.58 164.51 153.68C164.091 153.779 163.501 154.064 162.737 154.534C162.466 154.704 162.274 154.824 162.159 154.892C162.045 154.961 161.862 155.061 161.611 155.192C161.353 155.332 161.158 155.429 161.028 155.484C160.898 155.539 160.72 155.609 160.495 155.693C160.263 155.786 160.073 155.838 159.924 155.849C159.776 155.861 159.597 155.867 159.388 155.868C159.18 155.884 158.995 155.865 158.834 155.81C158.673 155.755 158.498 155.675 158.311 155.57C158.125 155.48 157.943 155.359 157.767 155.208C157.031 154.578 156.673 153.806 156.692 152.892C156.719 151.986 157.103 151.101 157.844 150.237Z" fill="white"/>
<path d="M144.708 162.518L153.39 170.076L152.09 170.918L145.018 164.653L147.713 173.754L146.466 174.562L139.261 168.382L142.089 177.398L140.789 178.24L137.439 167.227L138.872 166.299L145.878 172.288L143.276 163.446L144.708 162.518Z" fill="white"/>
<path d="M123.912 174.567C124.547 173.128 125.612 172.123 127.108 171.55C128.603 170.978 130.068 171.016 131.5 171.664C132.932 172.312 133.933 173.379 134.501 174.865C135.074 176.361 135.041 177.823 134.403 179.252C133.769 180.69 132.703 181.695 131.208 182.268C129.712 182.84 128.248 182.802 126.815 182.154C125.377 181.52 124.371 180.455 123.799 178.959C123.23 177.473 123.268 176.009 123.912 174.567ZM130.911 172.955C129.85 172.481 128.753 172.461 127.622 172.894C126.49 173.327 125.692 174.072 125.228 175.13C124.758 176.201 124.739 177.302 125.172 178.434C125.609 179.575 126.358 180.383 127.419 180.857C128.474 181.345 129.568 181.372 130.699 180.939C131.831 180.506 132.632 179.754 133.102 178.683C133.566 177.625 133.58 176.526 133.143 175.384C132.71 174.253 131.966 173.443 130.911 172.955Z" fill="white"/>
<path d="M111.43 175.84L114.649 179.547L117.212 179.067L116.432 174.903L117.877 174.632L119.914 185.507L115.564 186.322C114.632 186.496 113.772 186.314 112.985 185.776C112.2 185.247 111.72 184.517 111.546 183.585C111.414 182.881 111.506 182.199 111.822 181.539C112.127 180.882 112.589 180.372 113.208 180.009L109.83 176.14L111.43 175.84ZM118.216 184.426L117.456 180.371L114.551 180.916C114.013 181.016 113.594 181.298 113.295 181.762C112.987 182.238 112.886 182.755 112.99 183.314C113.095 183.874 113.376 184.314 113.833 184.636C114.279 184.96 114.772 185.071 115.311 184.97L118.216 184.426Z" fill="white"/>
<path d="M97.3425 176.66L99.1438 176.616L104.045 181.809L103.916 176.499L105.385 176.464L105.655 187.524L104.185 187.56L104.063 182.567L99.5713 187.672L97.77 187.716L102.522 182.225L97.3425 176.66Z" fill="white"/>
<path d="M76.79 184.454L77.0991 183.098L80.289 183.825L82.4387 174.394L83.8564 174.717L81.7068 184.148L84.8813 184.871L84.5722 186.228L76.79 184.454Z" fill="white"/>
<path d="M66.3642 170.273C67.815 169.667 69.2796 169.672 70.7581 170.288C72.2367 170.903 73.2719 171.939 73.8638 173.396C74.4558 174.852 74.4459 176.315 73.8342 177.784C73.2185 179.262 72.1872 180.299 70.7405 180.895C69.2898 181.501 67.8252 181.496 66.3466 180.88C64.8681 180.265 63.8329 179.229 63.241 177.772C62.6352 176.321 62.6402 174.857 63.256 173.378C63.8677 171.91 64.9038 170.874 66.3642 170.273ZM72.5472 173.926C72.1045 172.852 71.3238 172.081 70.2052 171.615C69.0866 171.15 67.9948 171.14 66.9298 171.587C65.8511 172.039 65.0788 172.825 64.6129 173.943C64.143 175.072 64.1294 176.173 64.5722 177.248C65.0011 178.328 65.7749 179.101 66.8935 179.567C68.0121 180.033 69.1108 180.04 70.1896 179.587C71.2545 179.141 72.022 178.353 72.4919 177.225C72.9577 176.106 72.9762 175.007 72.5472 173.926Z" fill="white"/>
<path d="M50.0225 164.857L50.3916 164.305C51.1941 163.105 52.2736 162.382 53.6299 162.136C54.9804 161.898 56.3345 162.233 57.6921 163.141C59.0934 164.078 59.9464 165.314 60.251 166.849C60.5409 168.387 60.2407 169.821 59.3503 171.152C58.4599 172.484 57.2518 173.305 55.7258 173.615C54.1852 173.928 52.723 173.622 51.3391 172.697C50.4896 172.129 49.8477 171.401 49.4136 170.515C48.9736 169.638 48.7835 168.737 48.8433 167.814L50.3073 167.9C50.2362 168.574 50.3682 169.24 50.7033 169.895C51.0238 170.553 51.5037 171.096 52.1431 171.523C53.1941 172.226 54.2882 172.457 55.4254 172.216C56.5567 171.984 57.4621 171.36 58.1416 170.344C58.8212 169.328 59.0522 168.253 58.8347 167.119C58.6084 165.979 57.9566 165.048 56.8793 164.328C55.9597 163.713 55.0658 163.438 54.1978 163.504C53.3239 163.579 52.5854 163.934 51.9825 164.57L55.3589 166.829L54.6208 167.932L50.0225 164.857Z" fill="white"/>
<path d="M47.9169 157.408L44.1936 153.869L45.1518 152.861L49.9406 157.413L42.3185 165.432L37.5871 160.935L38.5453 159.927L42.2113 163.411L44.5523 160.948L41.1727 157.736L42.1201 156.739L45.4997 159.952L47.9169 157.408Z" fill="white"/>
<path d="M29.0977 150.69L30.1925 149.832L32.2104 152.407L39.8243 146.441L40.7212 147.586L33.1073 153.552L35.1154 156.115L34.0206 156.973L29.0977 150.69Z" fill="white"/>
<path d="M22.6329 139.82L21.9308 138.547L31.6196 133.205L32.3217 134.478L27.9617 136.882L30.5563 141.588L34.9163 139.184L35.626 140.472L25.9372 145.813L25.2275 144.526L29.3383 142.26L26.7437 137.554L22.6329 139.82Z" fill="white"/>
<path d="M27.855 127.572L26.1269 122.735L27.4367 122.267L29.6592 128.488L19.2403 132.21L17.0444 126.063L18.3542 125.595L20.0556 130.358L23.2557 129.215L21.6872 124.824L22.9821 124.362L24.5507 128.752L27.855 127.572Z" fill="white"/>
<path d="M25.0755 111.452L21.3755 114.679L21.8608 117.241L26.0227 116.452L26.2962 117.897L15.4258 119.956L14.6021 115.608C14.4256 114.676 14.6059 113.816 15.143 113.028C15.6697 112.242 16.3989 111.76 17.3307 111.584C18.0347 111.451 18.7168 111.541 19.3769 111.856C20.0351 112.16 20.546 112.621 20.9097 113.239L24.7725 109.853L25.0755 111.452ZM16.5033 118.256L20.5564 117.488L20.0063 114.584C19.9043 114.046 19.6213 113.627 19.1573 113.329C18.681 113.023 18.1633 112.922 17.6043 113.028C17.0452 113.134 16.6053 113.416 16.2844 113.873C15.9616 114.321 15.8512 114.813 15.9532 115.352L16.5033 118.256Z" fill="white"/>
</svg>
