<svg width="187" height="32" viewBox="0 0 187 32" fill="none" xmlns="http://www.w3.org/2000/svg">
<path d="M0 0.00203628C4.21447 0.00637079 8.43111 -0.00880028 12.6456 0.00853779C16.2695 0.12557 20.0518 0.676054 23.159 2.66777C26.6265 4.87187 29.0301 8.62989 29.6359 12.6805C30.2308 16.3692 29.8183 20.3244 27.9314 23.6013C26.3377 26.4816 23.8147 28.8721 20.7358 30.0966C18.0564 31.2127 15.1252 31.4728 12.2547 31.5573C8.17055 31.5682 4.08636 31.5595 0.00217092 31.5617C-3.64395e-07 21.0418 0.00434257 10.5219 0 0.00203628ZM11.0497 11.003C12.6564 12.6046 14.2632 14.2084 15.8678 15.8122C14.2567 17.4073 12.6543 19.0132 11.0497 20.617C11.5426 21.1111 12.0354 21.6031 12.5305 22.0951C14.6171 19.9907 16.7298 17.9123 18.8164 15.8057C16.7276 13.7035 14.6193 11.6229 12.5305 9.52064C12.0333 10.0126 11.5404 10.5046 11.0497 11.003Z" fill="#2A9DD7"/>
<path d="M46.8759 6.73794C48.296 5.38991 50.2349 4.63787 52.1913 4.6097C55.0291 4.60536 57.8692 4.60536 60.7092 4.6097C60.6962 5.50261 60.8265 6.44536 60.4617 7.29276C60.238 7.87576 59.769 8.30704 59.3326 8.73182C60.0991 10.2684 60.3944 12.0564 59.9905 13.7382C59.3782 16.5491 56.9963 18.8204 54.2106 19.4598C50.6952 20.3527 46.6501 18.5495 45.1693 15.2033C43.8036 12.4032 44.5657 8.80768 46.8759 6.73794ZM51.2077 9.55755C50.2002 9.94549 49.4185 10.9359 49.399 12.0326C49.3165 13.5648 50.6779 14.9215 52.1934 14.9475C53.8849 15.0819 55.4656 13.4846 55.2115 11.7898C55.0139 9.98016 52.8535 8.81851 51.2077 9.55755Z" fill="#2A9DD7"/>
<path d="M133.877 9.24541C135.043 6.54067 137.868 4.68767 140.81 4.61615C143.702 4.59448 146.599 4.61181 149.493 4.60748C149.458 5.50472 149.626 6.45182 149.25 7.30138C149.026 7.88437 148.562 8.31783 148.11 8.72961C148.827 10.1557 149.152 11.7963 148.85 13.3762C148.475 15.6692 146.92 17.7042 144.855 18.7532C143.04 19.7414 140.838 19.9192 138.863 19.3643C136.615 18.7272 134.67 17.0389 133.808 14.8629C133.091 13.0793 133.104 11.0117 133.877 9.24541ZM139.996 9.5575C138.604 10.0755 137.764 11.7876 138.4 13.1703C138.919 14.5032 140.528 15.2379 141.889 14.8456C143.342 14.501 144.362 12.8929 143.928 11.4408C143.516 9.8089 141.527 8.88348 139.996 9.5575Z" fill="#2A9DD7"/>
<path d="M174.437 15.9553C175.813 14.4079 177.209 12.88 178.608 11.3542C181.404 11.3868 184.205 11.3586 187 11.4604C184.362 14.6485 181.689 17.8083 179.061 21.0072C181.658 24.1953 184.251 27.3855 186.856 30.5648C184.047 30.528 181.237 30.5193 178.43 30.476C177.053 28.9567 175.702 27.4136 174.341 25.8814C175.709 24.1866 177.092 22.5048 178.453 20.8035C177.099 19.1997 175.783 17.5656 174.437 15.9553Z" fill="#2A9DD7"/>
<path d="M44.3919 22.8448C45.9965 22.8297 47.6033 22.8449 49.21 22.8362C49.2361 24.0455 49.8918 25.2483 50.9883 25.8075C52.3453 26.592 54.2213 26.2258 55.1941 25.0013C55.7282 24.4096 55.9323 23.6186 55.9974 22.8427C57.602 22.834 59.2066 22.8449 60.8112 22.8362C60.809 25.0403 59.9036 27.2444 58.2838 28.7571C56.3145 30.6925 53.3203 31.4879 50.6409 30.8095C47.0517 29.9946 44.3224 26.5227 44.3919 22.8448Z" fill="#2A9DD7"/>
<path d="M133.167 22.8405C134.772 22.8383 136.377 22.8383 137.981 22.8405C138.038 24.2124 138.878 25.5496 140.207 26.0069C141.829 26.6657 143.824 25.788 144.493 24.1907C144.673 23.7616 144.732 23.2978 144.806 22.8405C146.41 22.834 148.015 22.8427 149.619 22.8362C149.58 25.0294 148.71 27.2357 147.088 28.7398C145.546 30.2655 143.364 31.1064 141.197 31.0436C138.717 30.9937 136.281 29.7541 134.815 27.7559C133.752 26.3493 133.2 24.5938 133.167 22.8405Z" fill="#2A9DD7"/>
<path d="M37.066 3.30487C38.2559 2.98195 39.6911 2.99712 40.6812 3.81851C41.5562 4.77861 41.5627 6.39105 40.844 7.44217C39.9755 8.49329 38.4144 8.5128 37.1854 8.23322C34.9447 7.73042 34.8839 3.92904 37.066 3.30487Z" fill="#101010"/>
<path d="M67.2271 3.20935C68.1347 3.04463 69.114 3.07281 69.9694 3.44774C71.7282 4.39917 71.5523 7.59371 69.5678 8.18104C68.6623 8.46928 67.6505 8.44761 66.7494 8.15286C64.5781 7.39216 64.843 3.48459 67.2271 3.20935Z" fill="#101010"/>
<path d="M155.195 3.29596C156.415 2.98387 157.959 2.97737 158.892 3.95047C159.67 4.97125 159.637 6.54684 158.858 7.55895C157.902 8.51255 156.359 8.53205 155.136 8.18312C153.008 7.54595 153.045 3.87028 155.195 3.29596Z" fill="#101010"/>
<path d="M92.6878 4.77205C94.5052 4.76772 96.3225 4.76772 98.1399 4.77205C98.1486 11.8503 98.1377 18.9264 98.1464 26.0047C101.636 26.0112 105.127 26.009 108.619 26.0069C108.619 27.5066 108.621 29.0063 108.619 30.5061C103.308 30.5017 97.9988 30.5082 92.69 30.5039C92.6856 21.9259 92.6878 13.3479 92.6878 4.77205Z" fill="#101010"/>
<path d="M77.6193 10.5651C78.1252 9.26254 78.5942 7.94485 79.0914 6.63799C80.24 6.63799 81.3887 6.63583 82.5373 6.64016C82.5394 8.03804 82.5308 9.43592 82.5416 10.8338C84.3742 10.8425 86.2089 10.8338 88.0415 10.8381C88.0523 12.1732 88.0437 13.5104 88.048 14.8454C86.2111 14.8476 84.3742 14.8454 82.5373 14.8454C82.5329 17.9619 82.5416 21.0784 82.5329 24.195C82.4721 25.0532 82.8022 26.061 83.6967 26.3557C85.1949 26.891 86.7995 26.3709 88.2673 25.9743C88.2564 27.3093 88.2695 28.6465 88.2586 29.9837C86.4043 30.7466 84.3655 30.9351 82.3788 30.8354C80.9501 30.7336 79.4475 30.2503 78.5095 29.1125C77.4717 27.8706 77.1764 26.1932 77.1612 24.6176C77.1633 21.3602 77.1655 18.105 77.1612 14.8476C76.3035 14.8454 75.4458 14.8476 74.5882 14.8454C74.5817 14.089 74.5817 13.3327 74.5925 12.5763C75.422 12.0843 76.2405 11.575 77.07 11.0809C77.2741 10.94 77.5455 10.8295 77.6193 10.5651Z" fill="#101010"/>
<path d="M118.526 10.6995C121.182 10.1902 124.1 10.3961 126.421 11.8893C128.606 13.2048 129.9 15.6235 130.38 18.066C130.714 20.1574 130.673 22.3377 130.119 24.3901C129.537 26.5855 128.098 28.575 126.093 29.6825C124.083 30.79 121.699 31.0132 119.447 30.7792C116.855 30.4931 114.373 29.041 113.029 26.7849C111.435 24.2124 111.218 21.0287 111.672 18.1007C112.002 15.9529 113.011 13.8637 114.716 12.4745C115.795 11.5469 117.143 10.9856 118.526 10.6995ZM119.777 14.9321C118.896 15.1445 118.101 15.7405 117.708 16.5619C116.998 17.9815 116.935 19.6134 116.963 21.1674C117.035 22.6628 117.213 24.2969 118.229 25.478C119.415 26.7285 121.436 26.8152 122.947 26.1542C124.569 25.2938 124.956 23.2783 125.06 21.6073C125.125 19.7738 125.116 17.7713 124.083 16.1762C123.151 14.8238 121.275 14.568 119.777 14.9321Z" fill="#101010"/>
<path d="M35.7198 10.8359C37.5111 10.8381 39.3003 10.8381 41.0916 10.8359C41.0916 17.3919 41.0938 23.95 41.0916 30.506C39.3003 30.5038 37.5111 30.5038 35.7198 30.506C35.7177 23.95 35.7198 17.3919 35.7198 10.8359Z" fill="#101010"/>
<path d="M65.5209 10.8404C67.31 10.836 69.0991 10.8382 70.8883 10.8382C70.897 17.3941 70.8926 23.9479 70.8904 30.5039C69.1013 30.5039 67.31 30.5104 65.5209 30.5017C65.5209 23.9479 65.5165 17.3941 65.5209 10.8404Z" fill="#101010"/>
<path d="M153.812 10.8359C155.612 10.8359 157.41 10.8381 159.21 10.8359C159.21 17.3919 159.212 23.95 159.21 30.506C157.41 30.5038 155.61 30.506 153.812 30.5038C153.81 23.9479 153.808 17.3919 153.812 10.8359Z" fill="#101010"/>
<path d="M162.723 11.2C165.322 11.1761 167.919 11.1957 170.518 11.1892C171.814 12.7864 173.136 14.362 174.437 15.955C175.783 17.5652 177.099 19.1993 178.454 20.8031C177.092 22.5044 175.709 24.1862 174.341 25.881C173.075 27.4501 171.788 29.0019 170.537 30.5818C167.936 30.5926 165.333 30.584 162.731 30.5861C165.137 27.3114 167.595 24.0778 170.007 20.8074C167.575 17.6086 165.148 14.4054 162.723 11.2Z" fill="#101010"/>
</svg>
